The story revolves around a woman named Lee Geum-ja (Lee Young-ae) who has recently been released from prison after 13-years for the abduction and murder of a young boy. Whilst serving time she began her journey of self discovery, invoking within her an angel which earned her the adoration of her fellow inmates. But her other side also began to surface and soon it was apparent that she was quite a cunning figure. Once outside we learn that her 13-years away was merely a prelude to a detailed plan which has her gather old friends with the help of her own intimidating ways in order for her to take revenge on one man – Mr. Baek (Choi Min-shik), the real foe behind that tragic kidnapping. Geum-ja realises that she must atone for her sins and make peace with those around her, including her own daughter who has been out of her life for far too long.


   General
      Complete name : Sympathy.for.Lady.Vengeance.2005.720p.Bluray.x264.DTS-WiKi.mkv
      Format : Matroska
      File size : 6.56 GiB
      Duration : 1h 55mn
      Overall bit rate : 8 160 Kbps
      Encoded date : UTC 2009-10-07 11:41:23
      Writing application : mkvmerge v2.9.7 ('Tenderness') built on Jul  1 2009 18:43:35
      Writing library : libebml v0.7.7 + libmatroska v0.8.1
   Video #1
      ID : 1
      Format : AVC
      Format/Info : Advanced Video Codec
      Format profile : High@L4.1
      Format settings, CABAC : Yes
      Format settings, ReFrames : 10 frames
      Muxing mode : Container profile=Unknown@4.1
      Codec ID : V_MPEG4/ISO/AVC
      Duration : 1h 55mn
      Bit rate : 6 104 Kbps
      Nominal bit rate : 6 266 Kbps
      Width : 1 280 pixels
      Height : 544 pixels
      Display aspect ratio : 2.35:1
      Frame rate : 24.000 fps
      Resolution : 24 bits
      Colorimetry : 4:2:0
      Scan type : Progressive
      Bits/(Pixel*Frame) : 0.365
      Stream size : 4.91 GiB (75%)
      Writing library : x264 core 68 r1183M f21daff     
   Audio #2
      ID : 2
      Format : DTS
      Format/Info : Digital Theater Systems
      Codec ID : A_DTS
      Duration : 1h 55mn
      Bit rate mode : Constant
      Bit rate : 1 510 Kbps
      Channel(s) : 6 channels
      Channel positions : Front: L C R, Surround: L R, LFE
      Sampling rate : 48.0 KHz
      Resolution : 16 bits
      Stream size : 1.21 GiB (19%)
      Title : KOR
      Language : Korean
   Audio #3
      ID : 3
      Format : AC-3
      Format/Info : Audio Coding 3
      Codec ID : A_AC3
      Duration : 1h 55mn
      Bit rate mode : Constant
      Bit rate : 384 Kbps
      Channel(s) : 2 channels
      Channel positions : L R
      Sampling rate : 48.0 KHz
      Stream size : 316 MiB (5%)
      Title : CHI
      Language : Chinese
 
http://www.imdb.com/title/tt0364569/

Language: Korean, English, Japanese
Subtitles: English, Chinese, Portuguesecooperative sonanad